<?xml version="1.0" encoding="utf-8"?>
<!-- Generator: Adobe Illustrator 16.0.4, SVG Export Plug-In . SVG Version: 6.00 Build 0)  -->
<!DOCTYPE svg PUBLIC "-//W3C//DTD SVG 1.1//EN" "http://www.w3.org/Graphics/SVG/1.1/DTD/svg11.dtd">
<svg version="1.1" xmlns="http://www.w3.org/2000/svg" xmlns:xlink="http://www.w3.org/1999/xlink" x="0px" y="0px" width="80px"
	 height="80px" viewBox="0 0 80 80" enable-background="new 0 0 80 80" xml:space="preserve">
<g id="thin_Lines">
	<g>
		<path fill="#1D1D1B" d="M40.003,17.5c-11.775,0-21,4.466-21,10.167L19,52.336C19,58.036,28.225,62.5,40,62.5
			c11.774,0,20.998-4.464,20.998-10.163L61,27.667C61,21.966,51.777,17.5,40.003,17.5z M21.038,27.376
			c0.242-2.788,3.911-5.267,9.217-6.668c2.854-0.733,6.183-1.164,9.749-1.164c3.494,0,6.76,0.412,9.575,1.119
			c5.408,1.396,9.161,3.905,9.391,6.731c0.007,0.086,0.03,0.17,0.03,0.256v0.033c-0.021,4.468-8.533,8.101-18.996,8.101
			c-10.477,0-19-3.642-19-8.118C21.004,27.569,21.03,27.474,21.038,27.376z M40,60.5c-10.229,0-18.882-3.688-18.999-8.073
			l0.002-22.89c1.944,3.831,9.719,6.705,19.001,6.705c9.276,0,17.046-2.871,18.996-6.699l-0.002,22.794
			C58.998,56.761,50.298,60.5,40,60.5z"/>
		<path fill="#1D1D1B" d="M40.004,29.997c2.853,0,5.087-1.023,5.087-2.33c0-1.307-2.234-2.332-5.087-2.332
			c-2.854,0-5.088,1.024-5.088,2.332C34.916,28.973,37.15,29.997,40.004,29.997z M40.004,25.79c2.497,0,4.606,0.86,4.606,1.876
			c0,1.016-2.109,1.875-4.606,1.875s-4.607-0.859-4.607-1.875C35.396,26.65,37.507,25.79,40.004,25.79z"/>
	</g>
</g>
<g id="hilfs">
</g>
</svg>
