<?xml version="1.0" encoding="utf-8"?>
<!-- Generator: Adobe Illustrator 16.0.4, SVG Export Plug-In . SVG Version: 6.00 Build 0)  -->
<!DOCTYPE svg PUBLIC "-//W3C//DTD SVG 1.1//EN" "http://www.w3.org/Graphics/SVG/1.1/DTD/svg11.dtd">
<svg version="1.1" xmlns="http://www.w3.org/2000/svg" xmlns:xlink="http://www.w3.org/1999/xlink" x="0px" y="0px" width="80px"
	 height="80px" viewBox="0 0 80 80" enable-background="new 0 0 80 80" xml:space="preserve">
<g id="thin_Lines">
	<path fill="#1D1D1B" d="M67.098,33.5L37.529,19.294L12.009,31.415l0.021,7.955l0.435,0.21l-2.183,1.054v2.926l4.472,2.16
		l2.51-1.208v2.394l4.472,2.16l2.509-1.208v2.393l4.472,2.16l2.509-1.208v2.394l4.472,2.16l5.191-2.5l3.455,1.663l25.525-12.124
		v-3.512l1.625-0.748v-2.999L67.098,33.5z M68.368,36.292l0.524,0.243l-0.524,0.206V36.292z M66.245,35.309l1.076,0.499
		L44.356,46.834L14.46,32.465l23.063-10.954L66.245,35.309z M18.496,39.732l1.228-0.587v2.794l-4.719,2.272v-1.121l3.543-1.649
		L18.496,39.732z M11.532,41.659l2.973,1.43v1.122l-2.973-1.437V41.659z M17.711,41.279l-2.954,1.376l-2.898-1.395l2.897-1.399
		L17.711,41.279z M17.996,39.737l0.034,1.14l-3.024-1.451l-0.001-1.118L17.996,39.737z M18.241,39.3l-2.907-1.389l1.166-0.558
		l2.896,1.395L18.241,39.3z M24.977,43.084l0.034,1.139l-3.024-1.45v-1.119L24.977,43.084z M21.736,43.207l2.955,1.418l-2.953,1.376
		l-2.898-1.395L21.736,43.207z M18.514,45.005l2.973,1.43v1.122l-2.973-1.437V45.005z M21.986,46.437l3.542-1.649l-0.052-1.708
		l1.228-0.587v2.793l-4.718,2.272V46.437z M25.222,42.646l-2.906-1.391l1.166-0.557l2.895,1.395L25.222,42.646z M32.457,46.424
		l1.228-0.587v2.794l-4.718,2.271v-1.121l3.543-1.648L32.457,46.424z M31.673,47.971l-2.954,1.375l-2.898-1.394l2.897-1.399
		L31.673,47.971z M31.957,46.429l0.035,1.141l-3.024-1.451l-0.001-1.12L31.957,46.429z M25.494,49.465v-1.114l2.973,1.429v1.122
		L25.494,49.465z M32.202,45.991l-2.906-1.39l1.166-0.558l2.895,1.396L32.202,45.991z M32.475,51.696l2.973,1.429v1.122
		l-2.973-1.437V51.696z M35.699,52.691l-2.898-1.394l2.897-1.4l2.955,1.419L35.699,52.691z M38.938,49.774l0.034,1.14l-3.024-1.452
		l-0.001-1.118L38.938,49.774z M40.665,51.976l-4.718,2.272v-1.121l3.543-1.648l-0.052-1.709l1.227-0.587V51.976z M39.184,49.337
		l-2.907-1.39l1.167-0.558l2.895,1.396L39.184,49.337z M37.443,46.835l-1.996,0.955v0.63l-1.263-0.609v-2.527l-3.723-1.794
		l-1.995,0.955v0.617l-1.263-0.608v-2.516l-3.723-1.793l-1.995,0.954v0.609l-1.263-0.604v-2.513L16.5,36.799l-1.995,0.955v0.627
		l-0.479-0.269l-0.014-5.307l30.094,14.463l-0.009,5.312l-2.933-1.41v-2.542L37.443,46.835z M67.868,41.531L44.598,52.584
		l0.009-5.314L67.868,36.1v1.902V38.5V41.531z M68.368,37.771v-0.486l1.125-0.445v0.414L68.368,37.771z"/>
</g>
<g id="hilfs">
</g>
</svg>
