<?xml version="1.0" encoding="UTF-8"?>
<svg width="16px" height="16px" viewBox="0 0 16 16" version="1.1" xmlns="http://www.w3.org/2000/svg" xmlns:xlink="http://www.w3.org/1999/xlink">
    <!-- Generator: Sketch 51.2 (57519) - http://www.bohemiancoding.com/sketch -->
    <title>save-2</title>
    <desc>Created with Sketch.</desc>
    <defs></defs>
    <g id="save-2" stroke="none" stroke-width="1" fill="none" fill-rule="evenodd">
        <path d="M10,2 L10,3.5 C10,3.77614237 9.77614237,4 9.5,4 C9.22385763,4 9,3.77614237 9,3.5 L9,2 L5,2 L5,5 L11,5 L11,2 L10,2 Z M12,2.41421356 L12,5 C12,5.55228475 11.5522847,6 11,6 L5,6 C4.44771525,6 4,5.55228475 4,5 L4,2 L2,2 L2,14 L4,14 L4,9 C4,8.44771525 4.44771525,8 5,8 L11,8 C11.5522847,8 12,8.44771525 12,9 L12,14 L14,14 L14,4.41421356 L12,2.41421356 Z M2,1 L11.5857864,1 C11.8510029,1 12.1053568,1.10535684 12.2928932,1.29289322 L14.7071068,3.70710678 C14.8946432,3.89464316 15,4.14899707 15,4.41421356 L15,14 C15,14.5522847 14.5522847,15 14,15 L2,15 C1.44771525,15 1,14.5522847 1,14 L1,2 C1,1.44771525 1.44771525,1 2,1 Z M5,9 L5,14 L11,14 L11,9 L5,9 Z" id="Combined-Shape" fill="#000000" fill-rule="nonzero"></path>
    </g>
</svg>