<?xml version="1.0" encoding="UTF-8"?>
<svg width="16px" height="16px" viewBox="0 0 16 16" version="1.1" xmlns="http://www.w3.org/2000/svg" xmlns:xlink="http://www.w3.org/1999/xlink">
    <!-- Generator: Sketch 51.2 (57519) - http://www.bohemiancoding.com/sketch -->
    <title>save</title>
    <desc>Created with Sketch.</desc>
    <defs></defs>
    <g id="save" stroke="none" stroke-width="1" fill="none" fill-rule="evenodd">
        <path d="M12,9.5 C12,9.22385763 12.2238576,9 12.5,9 C12.7761424,9 13,9.22385763 13,9.5 L13,12.5 C13,13.3284271 12.3284271,14 11.5,14 L3.5,14 C2.67157288,14 2,13.3284271 2,12.5 L2,9.5 C2,9.22385763 2.22385763,9 2.5,9 C2.77614237,9 3,9.22385763 3,9.5 L3,12.5 C3,12.7761424 3.22385763,13 3.5,13 L11.5,13 C11.7761424,13 12,12.7761424 12,12.5 L12,9.5 Z" id="Rectangle-2" fill="#000000" fill-rule="nonzero"></path>
        <path d="M9.64625,5.354 C9.74425,5.452 9.87225,5.5 10.00025,5.5 C10.12725,5.5 10.25525,5.452 10.35325,5.354 C10.54825,5.159 10.54825,4.842 10.35325,4.647 L7.85425,2.147 C7.76025,2.053 7.63325,2 7.50025,2 C7.36725,2 7.24025,2.053 7.14625,2.147 L4.64625,4.647 C4.45125,4.842 4.45125,5.159 4.64625,5.354 C4.84125,5.549 5.15825,5.549 5.35325,5.354 L7.00025,3.708 L7.00025,11.2316284 C7.00025,11.5066284 7.22525,11.7316284 7.50025,11.7316284 C7.77425,11.7316284 8.00025,11.5066284 8.00025,11.2316284 L8.00025,3.707 L9.64625,5.354 Z" id="Fill-1" fill="#1D1D1B" transform="translate(7.499750, 6.865814) rotate(-180.000000) translate(-7.499750, -6.865814) "></path>
    </g>
</svg>